<svg xmlns="http://www.w3.org/2000/svg" viewBox="0 0 1200 360" preserveAspectRatio="xMidYMid slice"><rect width="1200" height="360" fill="#e8cc60"/><polygon points="600,180 1376.5,-2717.8 2684.0,-1978.0" fill="#f49457"/><polygon points="600,180 2684.0,-1978.0 3523.1,-494.9" fill="#92b4d8"/><polygon points="600,180 3523.1,-494.9 3592.7,389.3" fill="#e8cc60"/><polygon points="600,180 3592.7,389.3 3534.4,803.7" fill="#f49457"/><polygon points="600,180 3534.4,803.7 3296.4,1495.1" fill="#e8cc60"/><polygon points="600,180 3296.4,1495.1 3171.5,1725.1" fill="#f3ecd9"/><polygon points="600,180 3171.5,1725.1 2528.4,2478.1" fill="#92b4d8"/><polygon points="600,180 2528.4,2478.1 1120.9,3134.4" fill="#e8cc60"/><polygon points="600,180 1120.9,3134.4 130.7,3143.1" fill="#f49457"/><polygon points="600,180 130.7,3143.1 -1484.0,2338.0" fill="#e8cc60"/><polygon points="600,180 -1484.0,2338.0 -1971.5,1725.1" fill="#f49457"/><polygon points="600,180 -1971.5,1725.1 -2140.6,1400.2" fill="#f3ecd9"/><polygon points="600,180 -2140.6,1400.2 -2395.9,23.0" fill="#92b4d8"/><polygon points="600,180 -2395.9,23.0 -2096.4,-1135.1" fill="#e8cc60"/><polygon points="600,180 -2096.4,-1135.1 -1288.0,-2151.4" fill="#92b4d8"/><polygon points="600,180 -1288.0,-2151.4 1376.5,-2717.8" fill="#e8cc60"/><line x1="600" y1="180" x2="1376.5" y2="-2717.8" stroke="#241f1b" stroke-width="1.2" stroke-linecap="round"/><line x1="600" y1="180" x2="2684.0" y2="-1978.0" stroke="#241f1b" stroke-width="1.2" stroke-linecap="round"/><line x1="600" y1="180" x2="3523.1" y2="-494.9" stroke="#241f1b" stroke-width="1.2" stroke-linecap="round"/><line x1="600" y1="180" x2="3592.7" y2="389.3" stroke="#241f1b" stroke-width="1.2" stroke-linecap="round"/><line x1="600" y1="180" x2="3534.4" y2="803.7" stroke="#241f1b" stroke-width="1.2" stroke-linecap="round"/><line x1="600" y1="180" x2="3296.4" y2="1495.1" stroke="#241f1b" stroke-width="1.2" stroke-linecap="round"/><line x1="600" y1="180" x2="3171.5" y2="1725.1" stroke="#241f1b" stroke-width="1.2" stroke-linecap="round"/><line x1="600" y1="180" x2="2528.4" y2="2478.1" stroke="#241f1b" stroke-width="1.2" stroke-linecap="round"/><line x1="600" y1="180" x2="1120.9" y2="3134.4" stroke="#241f1b" stroke-width="1.2" stroke-linecap="round"/><line x1="600" y1="180" x2="130.7" y2="3143.1" stroke="#241f1b" stroke-width="1.2" stroke-linecap="round"/><line x1="600" y1="180" x2="-1484.0" y2="2338.0" stroke="#241f1b" stroke-width="1.2" stroke-linecap="round"/><line x1="600" y1="180" x2="-1971.5" y2="1725.1" stroke="#241f1b" stroke-width="1.2" stroke-linecap="round"/><line x1="600" y1="180" x2="-2140.6" y2="1400.2" stroke="#241f1b" stroke-width="1.2" stroke-linecap="round"/><line x1="600" y1="180" x2="-2395.9" y2="23.0" stroke="#241f1b" stroke-width="1.2" stroke-linecap="round"/><line x1="600" y1="180" x2="-2096.4" y2="-1135.1" stroke="#241f1b" stroke-width="1.2" stroke-linecap="round"/><line x1="600" y1="180" x2="-1288.0" y2="-2151.4" stroke="#241f1b" stroke-width="1.2" stroke-linecap="round"/></svg>